# xmcd
#
# Track frame offsets:
#	150
#	14458
#	31982
#	54627
#	76986
#	103797
#	122114
#	139281
#	154641
#
# Disc length: 2296 seconds
#
# Revision: 0
# Processed by: cddbd v1.5.2PL0 Copyright (c) Steve Scherf et al.
# Submitted via: EasyCDDAExtractor 10.0.5.1
#
DISCID=7208f609
DTITLE=Jamshid - Faribaneh
DYEAR=2006
DGENRE=Pop
TTITLE0=Faribaaneh
TTITLE1=Aashti
TTITLE2=Tarke Ghorbat
TTITLE3=Sheykhaani
TTITLE4=Baaroon
TTITLE5=Shenaakhtamet
TTITLE6=Miram
TTITLE7=Haalaa Dige Dir Shodeh
TTITLE8=Mikhaastamet (remix) ~ji
EXTD=
EXTT0=
EXTT1=
EXTT2=
EXTT3=
EXTT4=
EXTT5=
EXTT6=
EXTT7=
EXTT8=
PLAYORDER=
